<svg width="31" height="31" viewBox="0 0 31 31" fill="none" xmlns="http://www.w3.org/2000/svg">
<rect x="0.929688" width="30.0704" height="31" fill="#29552B"/>
<rect x="14.6761" y="13.778" width="2.57746" height="2.58333" fill="white"/>
<rect x="14.6761" y="13.778" width="2.57746" height="2.58333" fill="white"/>
<rect x="14.6761" y="13.778" width="2.57746" height="2.58333" fill="white"/>
<rect x="17.2537" y="11.1947" width="2.57746" height="2.58333" fill="white"/>
<rect x="17.2537" y="11.1947" width="2.57746" height="2.58333" fill="white"/>
<rect x="17.2537" y="11.1947" width="2.57746" height="2.58333" fill="white"/>
<rect x="19.8311" y="8.61133" width="2.57746" height="2.58333" fill="white"/>
<rect x="19.8311" y="8.61133" width="2.57746" height="2.58333" fill="white"/>
<rect x="19.8311" y="8.61133" width="2.57746" height="2.58333" fill="white"/>
<rect x="12.0987" y="11.1947" width="2.57746" height="2.58333" fill="white"/>
<rect x="12.0987" y="11.1947" width="2.57746" height="2.58333" fill="white"/>
<rect x="12.0987" y="11.1947" width="2.57746" height="2.58333" fill="white"/>
<rect x="9.52124" y="8.61133" width="2.57746" height="2.58333" fill="white"/>
<rect x="9.52124" y="8.61133" width="2.57746" height="2.58333" fill="white"/>
<rect x="9.52124" y="8.61133" width="2.57746" height="2.58333" fill="white"/>
<rect x="17.2537" y="17.2224" width="2.57746" height="2.58333" transform="rotate(180 17.2537 17.2224)" fill="white"/>
<rect x="17.2537" y="17.2224" width="2.57746" height="2.58333" transform="rotate(180 17.2537 17.2224)" fill="white"/>
<rect x="17.2537" y="17.2224" width="2.57746" height="2.58333" transform="rotate(180 17.2537 17.2224)" fill="white"/>
<rect x="14.6761" y="19.8058" width="2.57746" height="2.58333" transform="rotate(180 14.6761 19.8058)" fill="white"/>
<rect x="14.6761" y="19.8058" width="2.57746" height="2.58333" transform="rotate(180 14.6761 19.8058)" fill="white"/>
<rect x="14.6761" y="19.8058" width="2.57746" height="2.58333" transform="rotate(180 14.6761 19.8058)" fill="white"/>
<rect x="12.0987" y="22.3891" width="2.57746" height="2.58333" transform="rotate(180 12.0987 22.3891)" fill="white"/>
<rect x="12.0987" y="22.3891" width="2.57746" height="2.58333" transform="rotate(180 12.0987 22.3891)" fill="white"/>
<rect x="12.0987" y="22.3891" width="2.57746" height="2.58333" transform="rotate(180 12.0987 22.3891)" fill="white"/>
<rect x="19.8311" y="19.8058" width="2.57746" height="2.58333" transform="rotate(180 19.8311 19.8058)" fill="white"/>
<rect x="19.8311" y="19.8058" width="2.57746" height="2.58333" transform="rotate(180 19.8311 19.8058)" fill="white"/>
<rect x="19.8311" y="19.8058" width="2.57746" height="2.58333" transform="rotate(180 19.8311 19.8058)" fill="white"/>
<rect x="22.4086" y="22.3891" width="2.57746" height="2.58333" transform="rotate(180 22.4086 22.3891)" fill="white"/>
<rect x="22.4086" y="22.3891" width="2.57746" height="2.58333" transform="rotate(180 22.4086 22.3891)" fill="white"/>
<rect x="22.4086" y="22.3891" width="2.57746" height="2.58333" transform="rotate(180 22.4086 22.3891)" fill="white"/>
</svg>
