<svg width="126" height="83" viewBox="0 0 126 83" fill="none" xmlns="http://www.w3.org/2000/svg">
<path d="M62.923 49.3316L71.2671 45.7968V43.0147L65.7051 45.3705V37.0286L71.2671 34.6705V31.8906L62.923 35.4254V49.3316Z" fill="white"/>
<path fill-rule="evenodd" clip-rule="evenodd" d="M79.3302 28.4116L82.0971 27.2402V41.2986L73.662 44.7824V30.8113L76.4367 29.6366V29.7856V38.9367V41.0199L79.3302 39.7941V37.711V28.4116Z" fill="white"/>
<path d="M95.83 35.4675L104.395 31.9306V29.0753L98.6849 31.4324V28.5794L101.54 27.3997V24.5443L98.6849 25.7241V22.8687L104.395 20.5093V17.6562L95.83 21.1931V35.4675Z" fill="white"/>
<path fill-rule="evenodd" clip-rule="evenodd" d="M87.5562 24.9171L93.1452 22.5137V25.049L93.1432 25.0499V27.575L90.2883 28.6912V26.2848L87.5562 27.4666V29.7639L90.288 28.6458V31.3653L93.1422 30.2376V36.6755L84.7542 40.1636V26.1139L87.5562 24.9159V24.9171ZM87.5562 32.5078V36.1922L90.2845 35.0643V31.391L87.5562 32.5078Z" fill="white"/>
<rect width="22.1617" height="9.08378" transform="matrix(0.951943 -0.306277 0.306466 0.951882 31.72 34.1855)" fill="#3CFDFF"/>
<rect width="22.1617" height="9.08378" transform="matrix(0.951943 -0.306277 0.306466 0.951882 33.0217 42.6777)" fill="#FFC5F4"/>
<path fill-rule="evenodd" clip-rule="evenodd" d="M28.6531 28.2003V63.6569L58.1468 51.3277V15.8711L28.6531 28.2003ZM47.9875 31.4459L50.0021 30.6041V33.0256L47.9875 33.8675V31.4459ZM45.953 34.6894L47.9676 33.8475V36.2691L45.953 37.1109V34.6894ZM37.8527 40.3367L35.8381 41.1786V38.757L37.8527 37.9152V40.3367ZM39.8872 37.0932L37.8726 37.9351V35.5136L39.8872 34.6717V37.0932ZM39.9094 37.1043L41.9239 36.2624V38.6839L39.9094 39.5258V37.1043ZM50.0642 42.3085L48.0496 43.1504V43.1215L48.0274 43.1304V45.4146L46.055 46.2387L44.2199 47.0075V47.0673L42.2054 47.9092V45.5564L40.3792 46.3185V43.897L42.3938 43.0551V43.1016L44.1778 42.355V42.3351L46.0927 41.5353V41.5153L48.1072 40.6734V40.7022L50.0642 39.8847V42.3063V42.3085ZM52.0366 34.6141L50.022 35.456V33.0345L52.0366 32.1926V34.6141Z" fill="#787878"/>
<path fill-rule="evenodd" clip-rule="evenodd" d="M29.3873 0.441406L57.3163 11.5609L28.0952 23.8502L0 12.6221L29.3873 0.441406Z" fill="#787878"/>
<path d="M2.82871 22.6523V19.8608L0.0362549 18.7109V32.6685L2.82871 33.8161V25.4438L5.62117 26.5914V23.7999L2.82871 22.6523Z" fill="white"/>
<path d="M11.2062 26.1021L8.4137 24.9522V27.7437L11.2062 28.8936V37.2681L13.9986 38.4179V24.4604L11.2062 23.3105V26.1021Z" fill="white"/>
<path d="M5.62085 29.3833L8.41331 30.5331V27.7416L5.62085 26.5918V29.3833Z" fill="white"/>
<path d="M21.7778 27.6616L18.9854 26.5117V40.4671L21.7778 41.6169V27.6616Z" fill="white"/>
<path d="M2.82871 40.6989V37.9074L0.0362549 36.7598V50.7151L2.82871 51.8649V43.4904L5.62117 44.6402V41.8487L2.82871 40.6989Z" fill="white"/>
<path d="M8.41331 45.7881L5.62085 44.6383V47.4298L8.41331 48.5796V54.1626L11.2058 55.3125V41.3549L8.41331 40.2051V45.7881Z" fill="white"/>
<path d="M22.0956 48.6309V57.0054L24.888 58.153V49.7807L22.0956 48.6309Z" fill="white"/>
<path d="M19.3044 47.4824L22.0969 48.6322V45.8407L16.512 43.541V57.4986L22.0969 59.796V57.0067L19.3044 55.8569V47.4824Z" fill="white"/>
<path fill-rule="evenodd" clip-rule="evenodd" d="M13.1784 61.8624V61.8557L0.0361328 56.3613V72.1599L11.5273 76.9631V76.9698L24.6674 82.4642V66.6655L13.1784 61.8624Z" fill="#8DE936"/>
<g opacity="0.4">
<path d="M29.0737 82.5063L31.7665 81.3941V76.0105L34.4592 74.8983V80.2819L37.1519 79.1697V65.7129L29.0759 69.0472V82.504L29.0737 82.5063ZM31.7665 70.629L34.4592 69.5169V72.2087L31.7665 73.3209V70.629Z" fill="#8DE936"/>
<path d="M42.5345 63.4902L39.8418 64.6024V78.0593L42.5345 76.9471V71.5635L45.2273 70.4535V67.7617L42.5345 68.8739V63.4902Z" fill="#8DE936"/>
<path d="M47.9206 74.7235V69.3398L45.2279 70.452V75.8334L47.9206 74.7235Z" fill="#8DE936"/>
<path d="M45.2279 67.7612L47.9206 66.649V61.2676L45.2279 62.3775V67.7612Z" fill="#8DE936"/>
<path d="M50.614 73.6137L53.3067 72.5015V67.1179L55.9995 66.0057V71.3893L58.6922 70.2772V56.8203L50.6162 60.1546V73.6115L50.614 73.6137ZM53.3067 61.7365L55.9995 60.6243V63.3161L53.3067 64.4283V61.7365Z" fill="#8DE936"/>
<path d="M72.1497 51.2637L66.7642 53.4858V56.1776L69.457 55.0654V63.1409L66.7642 64.2531V56.1776L64.0737 57.2898V65.363L61.381 66.4752V69.167L74.8424 63.6083V60.9165L72.1497 62.0287V51.2637Z" fill="#8DE936"/>
<path d="M77.5361 62.4984L85.6121 59.1619V56.4701L80.2289 58.6945V56.0026L82.9194 54.8905V52.2009L80.2289 53.3108V50.619L85.6121 48.3969V45.7051L77.5361 49.0394V62.4984Z" fill="#8DE936"/>
<path d="M90.9969 46.1762V43.4844L88.3042 44.5943V58.0534L90.9969 56.9412V48.8658L93.6897 47.7558V45.064L90.9969 46.1762Z" fill="#8DE936"/>
<path d="M99.0744 42.8389L96.3839 43.9511V46.6429L99.0744 45.5307V53.6061L101.767 52.494V39.0371L99.0744 40.1471V42.8389Z" fill="#8DE936"/>
<path d="M93.6903 50.4443L96.383 49.3344V46.6426L93.6903 47.7548V50.4443Z" fill="#8DE936"/>
<path d="M112.535 39.9701L109.844 41.0823V43.7741L112.535 42.662V48.0456L115.228 46.9334V33.4766L112.535 34.5887V39.9701Z" fill="#8DE936"/>
<path d="M107.151 36.8105L104.458 37.9227V51.3796L107.151 50.2674V47.5778L109.844 46.4656V43.7738L107.151 44.886V36.8105Z" fill="#8DE936"/>
<path d="M117.921 32.3656V37.7492L120.614 36.637V33.9452L123.306 32.8352V35.5248L120.614 36.637V39.3288L123.306 38.2166V43.6003L125.999 42.4881V29.0312L117.921 32.3656Z" fill="#8DE936"/>
<path d="M117.921 45.8237L120.614 44.7137V39.3301L117.921 40.4423V45.8237Z" fill="#8DE936"/>
</g>
</svg>
