<svg width="32" height="31" viewBox="0 0 32 31" fill="none" xmlns="http://www.w3.org/2000/svg">
<rect x="0.929688" width="30.9296" height="31" fill="#192B16"/>
<path d="M13.2832 17.068C13.2832 16.516 13.4332 16.036 13.7332 15.628C14.0332 15.22 14.5252 14.848 15.2092 14.512L16.5772 13.828C16.9132 13.66 17.1772 13.462 17.3692 13.234C17.5732 12.994 17.6752 12.73 17.6752 12.442C17.6752 11.878 17.4352 11.434 16.9552 11.11C16.4872 10.786 15.8272 10.624 14.9752 10.624C14.1232 10.624 13.4332 10.816 12.9052 11.2C12.3772 11.572 12.0712 12.094 11.9872 12.766H9.0892C9.1972 11.338 9.7672 10.228 10.7992 9.436C11.8312 8.632 13.2232 8.23 14.9752 8.23C16.7272 8.23 18.0952 8.59 19.0792 9.31C20.0752 10.03 20.5732 11.026 20.5732 12.298C20.5732 12.922 20.3932 13.498 20.0332 14.026C19.6732 14.542 19.1392 14.98 18.4312 15.34L16.9192 16.078C16.6072 16.234 16.3672 16.408 16.1992 16.6C16.0432 16.792 15.9652 17.032 15.9652 17.32V17.752H13.3732C13.3372 17.632 13.3132 17.518 13.3012 17.41C13.2892 17.29 13.2832 17.176 13.2832 17.068ZM14.6152 22.162C14.0992 22.162 13.6792 22.012 13.3552 21.712C13.0312 21.4 12.8692 21.004 12.8692 20.524C12.8692 20.032 13.0312 19.636 13.3552 19.336C13.6792 19.024 14.0992 18.868 14.6152 18.868C15.1432 18.868 15.5632 19.024 15.8752 19.336C16.1992 19.636 16.3612 20.032 16.3612 20.524C16.3612 21.004 16.1992 21.4 15.8752 21.712C15.5632 22.012 15.1432 22.162 14.6152 22.162Z" fill="white"/>
</svg>
