<svg width="13" height="25" viewBox="0 0 13 25" fill="none" xmlns="http://www.w3.org/2000/svg">
<rect width="6.25" height="6.25" transform="matrix(1 0 0 -1 0 12.5)" fill="#65D100"/>
<rect width="6.25" height="6.25" transform="matrix(1 0 0 -1 0 12.5)" fill="#65D100"/>
<rect width="6.25" height="6.25" transform="matrix(1 0 0 -1 0 12.5)" fill="#65D100"/>
<rect width="6.25" height="6.25" transform="matrix(1 0 0 -1 0 6.25)" fill="#7CF904"/>
<rect width="6.25" height="6.25" transform="matrix(1 0 0 -1 6.25 12.5)" fill="#7CF904"/>
<rect width="6.25" height="6.25" transform="matrix(1 0 0 -1 6.25 6.25)" fill="#3F8200"/>
<rect width="6.25" height="6.25" transform="matrix(1 0 0 -1 0 24.5)" fill="#65D100"/>
<rect width="6.25" height="6.25" transform="matrix(1 0 0 -1 0 24.5)" fill="#65D100"/>
<rect width="6.25" height="6.25" transform="matrix(1 0 0 -1 0 24.5)" fill="#65D100"/>
<rect width="6.25" height="6.25" transform="matrix(1 0 0 -1 0 18.25)" fill="#7CF904"/>
<rect width="6.25" height="6.25" transform="matrix(1 0 0 -1 6.25 24.5)" fill="#7CF904"/>
<rect width="6.25" height="6.25" transform="matrix(1 0 0 -1 6.25 18.25)" fill="#3F8200"/>
</svg>
